<svg width="346" height="130" viewBox="0 0 346 130" fill="none" xmlns="http://www.w3.org/2000/svg">
<mask id="mask0_23_188" style="mask-type:alpha" maskUnits="userSpaceOnUse" x="0" y="0" width="346" height="130">
<rect width="346" height="130" rx="13" fill="url(#paint0_linear_23_188)"/>
</mask>
<g mask="url(#mask0_23_188)">
<path d="M336.161 61.7891C334.952 61.2564 332.204 56.9221 332.204 56.9221C332.204 56.9221 336.466 55.6798 337.678 56.2125C337.969 56.3355 338.238 56.531 338.47 56.7877C338.701 57.0443 338.89 57.3569 339.026 57.7073C339.162 58.0578 339.242 58.4391 339.261 58.8292C339.28 59.2192 339.238 59.6103 339.138 59.9796C339.037 60.3489 338.88 60.6891 338.676 60.9804C338.471 61.2718 338.223 61.5085 337.946 61.6769C337.669 61.8452 337.369 61.9418 337.063 61.9611C336.756 61.9803 336.45 61.9219 336.161 61.7891Z" fill="#6C63FF"/>
<path d="M327.951 66.6429C326.515 66.4308 322.788 63.4831 322.788 63.4831C322.788 63.4831 327.382 61.7707 328.816 61.9828C329.507 62.0844 330.124 62.4272 330.532 62.9359C330.94 63.4446 331.105 64.0774 330.992 64.6951C330.878 65.3129 330.495 65.865 329.926 66.2299C329.358 66.5949 328.65 66.7429 327.96 66.6413L327.951 66.6429Z" fill="#6C63FF"/>
<path d="M316.932 60.2752C317.105 61.6972 319.942 65.4955 319.942 65.4955C319.942 65.4955 321.772 61.0075 321.599 59.5802C321.565 59.2344 321.468 58.8997 321.315 58.5958C321.163 58.2919 320.956 58.0249 320.709 57.8106C320.462 57.5962 320.178 57.4389 319.875 57.3477C319.572 57.2566 319.255 57.2335 318.944 57.2798C318.633 57.3262 318.333 57.441 318.063 57.6176C317.792 57.7942 317.556 58.0289 317.369 58.308C317.181 58.5871 317.046 58.9049 316.971 59.2427C316.896 59.5806 316.883 59.9316 316.932 60.2752Z" fill="#6C63FF"/>
<path opacity="0.25" d="M327.951 66.6429C326.515 66.4308 322.788 63.4831 322.788 63.4831C322.788 63.4831 327.382 61.7707 328.816 61.9828C329.507 62.0844 330.124 62.4272 330.532 62.9359C330.94 63.4446 331.105 64.0774 330.992 64.6951C330.878 65.3129 330.495 65.865 329.926 66.2299C329.358 66.5949 328.65 66.7429 327.96 66.6413L327.951 66.6429Z" fill="black"/>
<path opacity="0.25" d="M316.932 60.2752C317.105 61.6972 319.942 65.4955 319.942 65.4955C319.942 65.4955 321.772 61.0075 321.599 59.5802C321.565 59.2344 321.468 58.8997 321.315 58.5958C321.163 58.2919 320.956 58.0249 320.709 57.8106C320.462 57.5962 320.178 57.4389 319.875 57.3477C319.572 57.2566 319.255 57.2335 318.944 57.2798C318.633 57.3262 318.333 57.441 318.063 57.6176C317.792 57.7942 317.556 58.0289 317.369 58.308C317.181 58.5871 317.046 58.9049 316.971 59.2427C316.896 59.5806 316.883 59.9316 316.932 60.2752Z" fill="black"/>
<path d="M325.495 61.9143C324.067 62.2367 319.257 60.9034 319.257 60.9034C319.257 60.9034 322.726 57.6613 324.154 57.3324C324.84 57.1748 325.568 57.2651 326.179 57.5833C326.789 57.9015 327.232 58.4216 327.41 59.0292C327.588 59.6368 327.486 60.2821 327.127 60.8232C326.768 61.3642 326.181 61.7567 325.495 61.9143Z" fill="#6C63FF"/>
<path d="M318.704 52.3278C319.587 53.4423 323.965 54.9026 323.965 54.9026C323.965 54.9026 323.226 49.8975 322.343 48.7831C322.135 48.5123 321.88 48.2902 321.594 48.1296C321.307 47.969 320.995 47.8732 320.675 47.8476C320.355 47.8221 320.034 47.8673 319.729 47.9808C319.425 48.0942 319.144 48.2736 318.903 48.5085C318.662 48.7433 318.466 49.029 318.325 49.3489C318.184 49.6688 318.102 50.0165 318.084 50.3719C318.065 50.7272 318.11 51.0832 318.217 51.4189C318.323 51.7547 318.489 52.0636 318.704 52.3278Z" fill="#6C63FF"/>
<path d="M313.661 61.0222C314.306 62.2038 318.079 64.3185 318.079 64.3185C318.079 64.3185 318.111 59.5735 317.471 58.3903C317.152 57.8439 316.657 57.4589 316.09 57.3167C315.523 57.1746 314.93 57.2866 314.435 57.6289C313.941 57.9713 313.584 58.5171 313.441 59.1505C313.297 59.784 313.379 60.4554 313.668 61.0222H313.661Z" fill="#6C63FF"/>
<path d="M306.601 35.1783C306.577 35.1375 306.56 35.0967 306.541 35.0593C306.541 35.0423 306.524 35.0287 306.517 35.0117C306.48 35.0292 306.442 35.0445 306.403 35.0576C306.328 35.0865 306.252 35.1137 306.174 35.1358C306.095 35.1579 306.063 35.1698 306.003 35.1834C305.954 35.2004 305.903 35.2134 305.852 35.2225L305.866 35.253C305.928 35.2394 305.99 35.2276 306.053 35.2106L306.07 35.4213C306.141 35.4213 306.208 35.4111 306.272 35.4111C306.303 35.4094 306.334 35.4094 306.364 35.4111C306.497 35.4111 306.613 35.4111 306.705 35.4111C306.669 35.3346 306.631 35.2547 306.601 35.1783ZM341.152 90.087C340.352 89.0114 338.756 77.4665 338.756 77.4665C338.756 77.4665 335.616 69.2573 336.472 65.9811C337.328 62.7049 334.133 54.3223 334.133 54.3223C334.133 54.3223 332.023 53.4064 331.909 52.047C331.909 52.047 323.291 49.3282 322.888 47.289C322.561 45.6169 317.216 44.4172 315.297 44.0383C314.711 41.6797 314.122 39.4791 313.688 38.2778C313.571 37.9039 313.46 37.5811 313.358 37.3262C312.624 35.457 310.357 35.287 308.713 35.4366C308.642 35.118 308.509 34.8162 308.323 34.5478C308.296 34.4556 308.242 34.3734 308.168 34.3116C308.133 34.2816 308.096 34.2543 308.056 34.2301C308.026 34.175 307.987 34.1255 307.94 34.0839C307.894 34.0419 307.842 34.0054 307.787 33.9752C307.748 33.9538 307.707 33.9351 307.665 33.9191C307.566 33.8816 307.464 33.8537 307.36 33.8358C307.239 33.811 307.116 33.7951 306.992 33.7883C307.293 33.6571 307.561 33.4616 307.777 33.2156C307.924 33.0429 308.034 32.8415 308.099 32.6243C308.153 32.4436 308.177 32.2553 308.17 32.0669C308.126 32.1445 308.075 32.2179 308.017 32.2861C308.088 31.5333 307.69 30.7686 307.462 30.0193C307.186 29.0437 307.134 28.0182 307.312 27.02C307.54 25.5145 308.105 23.9919 308.488 22.4592C308.489 22.4507 308.489 22.4422 308.488 22.4337C308.689 21.6725 308.813 20.8932 308.859 20.1074C308.926 18.5219 308.519 16.9399 307.865 15.4955C307.285 14.216 306.429 12.9568 305.118 12.4368C304.145 12.0443 303.054 12.1072 302.005 12.0426C299.653 11.8965 297.41 11.0706 295.173 10.3195C292.937 9.56845 290.636 8.88534 288.282 9.01619C285.928 9.14703 283.506 10.2804 282.432 12.3604C282.091 13.0095 281.896 13.7317 281.489 14.3417C280.726 15.4921 279.361 16.0682 278.222 16.8618C277.084 17.6553 276.081 18.7819 275.669 20.1261C275.444 20.8502 275.413 21.6205 275.577 22.3606C275.615 22.5278 275.662 22.6924 275.72 22.8534C275.882 23.3024 276.134 23.7136 276.461 24.0616C276.707 24.3188 276.991 24.5381 277.302 24.7124C277.692 24.9285 278.11 25.0908 278.544 25.195C278.529 25.246 278.514 25.3004 278.497 25.353C278.469 25.4397 278.445 25.523 278.42 25.6164C278.364 25.8254 278.311 26.0379 278.267 26.252C278.265 26.2672 278.265 26.2826 278.267 26.2978C278.058 27.2644 277.953 28.2505 277.954 29.2393C277.953 29.7069 277.977 30.1743 278.025 30.6395C278.706 37.5352 284.408 42.9746 291.453 43.328C291.694 43.3399 291.938 43.3467 292.184 43.3467C292.297 43.3467 292.407 43.3467 292.525 43.3467C292.635 43.4928 292.744 43.6424 292.848 43.7885C292.952 43.9347 293.047 44.0842 293.138 44.2303L292.891 43.9754L292.644 43.7494C292.577 43.8411 292.502 43.9269 292.421 44.006C292.26 43.9495 292.096 43.903 291.929 43.8667C291.223 43.7103 290.147 43.6526 288.731 44.0791C287.429 44.4682 285.837 45.2686 283.975 46.7894L274.902 52.2271L269.993 55.2077L268.225 59.5238C268.225 59.5238 266.895 64.6523 265.416 70.5284C265.358 70.5453 265.302 70.5623 265.246 70.5827C265.126 70.5691 265.006 70.5623 264.885 70.5623C264.027 70.5603 263.202 70.8904 262.582 71.4833C261.962 72.0761 261.597 72.8856 261.563 73.7417C258.622 77.3102 258.455 80.8787 259.146 82.5168C259.208 82.6702 259.287 82.8166 259.381 82.9535C259.834 83.606 260.679 85.2883 261.537 87.081C261.515 87.2289 261.502 87.3529 261.495 87.4464C261.493 87.4769 261.493 87.5076 261.495 87.5381C261.495 87.5381 262.005 95.2376 260.303 97.4449C259.931 97.9258 259.987 98.558 260.303 99.2581C261.444 101.776 265.952 105.139 265.952 105.139C265.952 105.139 271.36 105.11 274.372 104.782C274.364 105.085 274.357 105.386 274.35 105.68C274.282 108.65 274.282 111.139 274.282 111.139L274.17 114.254C274.17 114.254 273.149 120.818 272.638 122.628C272.316 123.763 272.687 134.273 273.011 142H326.288C326.915 137.429 326.031 123.541 326.031 123.541C326.031 123.541 325.192 119.95 325.162 116.82C325.16 116.817 325.159 116.813 325.159 116.809C325.159 116.805 325.16 116.801 325.162 116.798C325.162 116.524 325.162 116.258 325.172 115.996L325.558 115.982L326.253 115.959H326.316C326.316 115.959 326.333 115.894 326.372 115.789C326.464 115.526 326.589 115.277 326.745 115.046C327.041 114.609 327.504 114.181 328.2 114.152C328.585 114.137 329.18 113.826 329.853 113.367C329.857 113.368 329.862 113.368 329.866 113.367C331.675 112.145 334.067 109.89 334.647 109.52C335.445 109.01 339.268 105.612 339.268 105.612C339.268 105.612 339.838 104.891 340.446 104.023L340.468 103.992C341.224 102.905 342.027 101.605 341.83 101.195C341.489 100.461 342.058 98.7058 342.058 98.7058C343.833 95.4619 341.952 91.1627 341.152 90.087ZM308.24 37.8207C308.256 37.8714 308.266 37.9239 308.271 37.977C308.228 37.9209 308.185 37.8614 308.143 37.8071L308.102 37.7527L308.073 37.7119L308.138 37.6235C308.138 37.6235 308.138 37.6235 308.138 37.6354C308.183 37.6905 308.217 37.7533 308.24 37.8207ZM307.668 36.3151C307.482 36.3525 307.336 36.3865 307.241 36.412C307.12 36.1978 307.004 35.9837 306.9 35.7662C307.173 35.9243 307.43 36.1081 307.668 36.3151ZM307.348 36.5836C307.348 36.5802 307.348 36.5768 307.348 36.5734L307.362 36.5836C307.431 36.6295 307.499 36.6736 307.562 36.7195C307.619 36.7603 307.67 36.7994 307.721 36.8402C307.687 36.8996 307.649 36.9608 307.612 37.0101C307.552 36.9166 307.496 36.8266 307.442 36.7331C307.408 36.6957 307.377 36.6448 307.348 36.5836ZM306.327 34.4867C306.656 34.4543 306.987 34.4543 307.316 34.4867C307.362 34.4867 307.402 34.4952 307.443 34.502C307.536 34.5162 307.626 34.5395 307.714 34.5716C307.915 34.8526 308.039 35.1813 308.073 35.5249L307.981 35.5385L307.891 35.5555C307.721 35.5844 307.551 35.6133 307.418 35.6405L307.248 35.6762C307.021 35.7254 306.89 35.7628 306.885 35.7645C306.863 35.7186 306.841 35.6762 306.817 35.632C306.78 35.5589 306.74 35.4841 306.706 35.4111C306.672 35.338 306.628 35.2547 306.592 35.1783C306.568 35.1375 306.551 35.0967 306.533 35.0593C306.533 35.0423 306.516 35.0287 306.509 35.0117C306.499 34.9937 306.49 34.975 306.483 34.9557C306.38 34.745 306.284 34.5342 306.192 34.3269C306.182 34.3065 306.174 34.2845 306.165 34.2641L306.294 34.2556V34.2997L306.327 34.4867ZM265.718 139.9C265.704 137.369 265.52 134.632 265.009 132.063C264.792 130.97 264.567 129.877 264.339 128.803C264.281 128.535 264.225 128.27 264.169 128.005L263.644 128.074H263.597C262.167 121.344 260.673 115.413 260.673 115.413C260.673 115.413 257.704 104.098 258.048 103.195C258.092 103.078 258.036 102.762 257.91 102.298C257.192 99.7253 254.193 92.636 253.144 90.2128C253.144 90.2026 253.136 90.1907 253.133 90.1822C252.962 89.7761 252.84 89.5025 252.802 89.4226L253.049 85.8066L253.063 85.5891L253.095 85.1269L253.081 85.115L253.095 84.9008C253.095 84.9008 250.505 82.7802 246.117 81.2491C245.946 81.1879 245.766 81.1284 245.587 81.0707C245.807 79.6076 246.098 77.9559 246.478 76.3467C246.513 76.1852 246.552 76.0289 246.593 75.8709C246.629 75.7129 246.67 75.5599 246.711 75.4053C246.775 75.1538 246.845 74.9057 246.917 74.661C247.153 74.5862 247.386 74.503 247.616 74.4146L247.705 74.3806C250.535 73.281 252.871 71.1945 254.279 68.5077C255.687 65.8208 256.073 62.7155 255.364 59.7668C254.96 58.0945 254.213 56.5237 253.172 55.1533C253.093 55.0479 253.01 54.9426 252.927 54.8389C252.843 54.7353 252.743 54.6197 252.649 54.5144C253.141 53.3979 253.721 52.3359 253.769 51.25C253.778 51.1125 253.778 50.9746 253.769 50.8371V50.8201C253.706 50.1217 253.396 49.4148 252.675 48.6722C251.621 47.583 250.122 47.0307 248.622 46.7657C247.123 46.5006 245.594 46.4938 244.086 46.3153C241.586 46.0163 239.15 45.2465 236.65 45.0103C233.57 44.7256 230.469 45.2529 227.658 46.5396C225.798 47.3893 223.913 48.8745 223.801 50.9119C223.709 52.5959 224.884 54.2102 224.587 55.8738C224.293 57.5085 222.625 58.7948 222.771 60.4482C222.827 61.094 223.159 61.6717 223.575 62.1866C223.718 62.3565 223.869 62.5265 224.026 62.6964C224.632 63.337 225.299 63.9521 225.638 64.7593C225.651 64.7933 225.665 64.8273 225.677 64.8613C225.964 65.6582 225.835 66.6659 225.124 67.123C225.127 67.1261 225.13 67.1302 225.132 67.1349C225.142 67.1485 225.152 67.1587 225.161 67.1723C225.162 67.1696 225.162 67.1665 225.161 67.1638C225.413 67.4624 225.753 67.674 226.133 67.7687L226.278 67.8129C226.16 67.9404 226.049 68.0729 225.937 68.2122L225.864 68.3091C225.676 68.5609 225.506 68.8249 225.353 69.0993C225.267 69.2522 225.183 69.4051 225.113 69.5581C224.88 70.0242 224.711 70.5198 224.611 71.0313C224.429 72.1563 224.686 73.3288 224.41 74.4299C224.07 75.7893 222.993 76.8327 222.385 78.0952C221.234 80.4742 221.886 83.2661 222.118 85.8932C222.433 89.4617 221.922 93.0455 221.413 96.5902C221.143 98.4753 220.873 100.362 220.603 102.25C219.922 106.99 219.241 111.73 218.56 116.47C218.312 118.207 218.017 120.039 216.858 121.379H216.87C216.87 121.379 216.87 121.389 216.858 121.393C217.206 121.545 217.576 121.64 217.955 121.675C219.468 121.826 221.071 121.095 222.433 120.297C223.511 119.675 224.532 118.959 225.484 118.157C225.345 118.667 225.195 119.223 225.035 119.821C225.036 119.827 225.036 119.832 225.035 119.838C223.113 127.145 220.023 140.54 220.023 140.54C220.023 140.54 219.742 141.123 219.377 141.992H267.375C266.814 141.312 266.291 140.661 265.883 140.136L265.718 139.9ZM230.179 72.3364C230.191 72.316 230.199 72.2973 230.211 72.2786C230.211 72.333 230.211 72.3857 230.211 72.4366C230.211 72.4876 230.211 72.5335 230.211 72.5811C230.211 72.6287 230.211 72.6236 230.211 72.6474C230.211 72.717 230.196 72.7867 230.184 72.8564C230.184 72.8564 230.184 72.8649 230.184 72.8717L230.354 72.9345L230.551 73.0161C231.718 73.476 232.899 73.8924 234.095 74.2651C234.218 74.3042 234.342 74.3415 234.466 74.3772L234.492 74.5879C234.522 74.8037 234.551 75.0229 234.578 75.2422C234.578 75.2422 234.578 75.2523 234.578 75.2591C234.655 75.8658 234.73 76.4707 234.796 77.0621C234.796 77.0621 231.671 75.8726 231.711 77.6789C231.709 77.7112 231.709 77.7435 231.711 77.7758C231.707 77.8188 231.707 77.8619 231.711 77.9049C231.739 79.3119 232.18 80.1463 232.269 80.5745C232.263 80.5922 232.254 80.6085 232.242 80.6221C232.166 80.7861 232.14 80.9686 232.167 81.1471C232.164 81.4511 232.188 81.7548 232.238 82.0546C232.146 82.1106 232.056 82.1667 231.966 82.2245C231.898 82.267 231.833 82.3145 231.767 82.3621C231.349 80.9161 230.803 79.5103 230.134 78.1615C229.666 77.1997 229.14 76.1972 229.146 75.1419C229.146 75.0739 229.146 75.0043 229.154 74.9346C229.173 74.6287 229.231 74.3266 229.328 74.0357C229.367 73.9252 229.409 73.8165 229.457 73.7094C229.568 73.455 229.693 73.2066 229.83 72.9651C229.918 72.8054 230.012 72.6474 230.102 72.4876C230.131 72.44 230.158 72.3908 230.185 72.3432L230.179 72.3364ZM306.601 35.1783C306.577 35.1375 306.56 35.0967 306.541 35.0593C306.541 35.0423 306.524 35.0287 306.517 35.0117C306.48 35.0292 306.442 35.0445 306.403 35.0576C306.328 35.0865 306.252 35.1137 306.174 35.1358C306.095 35.1579 306.063 35.1698 306.003 35.1834L305.852 35.2225L305.866 35.253C305.928 35.2394 305.99 35.2276 306.053 35.2106L306.07 35.4213C306.141 35.4213 306.208 35.4111 306.272 35.4111H306.364C306.497 35.4111 306.613 35.4111 306.705 35.4111C306.669 35.3346 306.631 35.2547 306.601 35.1783Z" fill="url(#paint1_linear_23_188)"/>
<path d="M270.514 59.35L269.483 59.8065C269.483 59.8065 262.761 85.9805 262.761 88.0959C262.761 90.2114 277.015 101.982 277.015 101.982L279.239 86.9366C279.239 86.9366 276.045 52.4336 270.514 59.35Z" fill="#E8F5FF"/>
<path d="M301.465 50.1947L296.115 47.333C295.815 46.0235 295.283 44.7815 294.546 43.6689C293.763 42.5103 292.722 41.3723 291.425 40.7787C288.147 39.2719 305.291 31.3628 305.291 31.3628C305.561 32.3129 305.879 33.248 306.244 34.1643C307.127 36.3992 308.592 39.2893 310.48 40.1124C313.691 41.5131 301.465 50.1947 301.465 50.1947Z" fill="#FFC1C7"/>
<path opacity="0.1" d="M306.31 34.5781C305.574 37.6091 304.044 40.2927 301.936 42.2501C299.828 44.2074 297.248 45.3396 294.561 45.4867C293.775 44.157 292.73 42.8508 291.427 42.1696C288.135 40.4402 305.353 31.3628 305.353 31.3628C305.624 32.4532 305.943 33.5265 306.31 34.5781Z" fill="black"/>
<path d="M306.31 30.1823C306.31 33.2087 305.517 36.1674 304.03 38.6841C302.543 41.2009 300.429 43.1626 297.956 44.3212C295.483 45.4798 292.761 45.7832 290.135 45.1931C287.509 44.603 285.097 43.1458 283.204 41.0059C281.311 38.866 280.021 36.1395 279.499 33.1712C278.977 30.2029 279.245 27.1262 280.269 24.3302C281.294 21.5341 283.029 19.1444 285.255 17.4632C287.482 15.782 290.099 14.8848 292.776 14.8852C294.555 14.8759 296.319 15.2652 297.964 16.0306C299.61 16.796 301.105 17.9224 302.364 19.3447C303.622 20.767 304.618 22.4571 305.296 24.3172C305.973 26.1773 306.318 28.1707 306.31 30.1823Z" fill="#FFC1C7"/>
<path d="M308.664 50.2557L304.619 58.7082L301.052 64.3186H289.632L286.301 56.6481L287.651 48.6933H296.373L302.004 48.4091L303.906 47.8407L305.132 48.4637L308.664 50.2557Z" fill="#575A89"/>
<path opacity="0.1" d="M307.313 38.4303C307.313 38.4303 309.392 38.8815 307.53 40.4353C305.669 41.989 299.248 46.93 299.248 46.93C299.248 46.93 301.503 48.9756 301.037 51.3716L308.51 47.13L309.839 40.3435C309.839 40.3435 309.988 38.304 307.313 38.4303Z" fill="black"/>
<path opacity="0.1" d="M299.594 47.8407L293.95 48.7082C293.95 48.7082 295.115 52.719 294.532 53.8578C294.515 53.8931 294.5 53.9297 294.489 53.9672L292.186 59.7653L293.912 64.3186L299.885 56.7299L297.849 53.8578C297.849 53.8578 300.001 51.2013 301.281 50.2799C302.561 49.3584 299.594 47.8407 299.594 47.8407Z" fill="black"/>
<path d="M299.594 47.8407L293.95 48.7067C293.95 48.7067 295.115 52.7179 294.532 53.8567C294.515 53.8921 294.5 53.9287 294.489 53.9662L292.186 59.7649L293.912 64.3186L299.885 56.7242L297.849 53.8518C297.849 53.8518 300.001 51.1951 301.281 50.2736C302.561 49.3521 299.594 47.8407 299.594 47.8407Z" fill="#DCE6F2"/>
<path d="M308.264 38.4298C308.264 38.4298 310.531 38.8401 308.499 40.2527C306.467 41.6654 299.248 46.5201 299.248 46.5201C299.248 46.5201 301.921 48.0175 301.414 50.1946L309.566 46.3396L311.016 40.1693C311.016 40.1693 311.177 38.3149 308.264 38.4298Z" fill="#575A89"/>
<path opacity="0.1" d="M292.805 45.4867C292.805 45.4867 293.343 46.238 295.717 47.5928C295.717 47.5928 291.765 49.1635 293.277 51.3717L287.231 50.1936L286.301 48.0221L292.805 45.4867Z" fill="black"/>
<path d="M292.805 45.4867C292.805 45.4867 293.343 46.2382 295.717 47.5932C295.717 47.5932 291.764 49.1564 293.276 51.3716L287.231 50.1933L286.301 48.0227L292.805 45.4867Z" fill="#575A89"/>
<path opacity="0.1" d="M308.664 49.7031L304.619 58.4877L301.059 64.3186H289.632L286.301 56.3466L287.649 48.0793H290.075C290.035 50.0085 290.792 52.2747 290.743 53.1175C290.661 54.5026 292.963 61.9756 292.963 61.9756C292.963 61.9756 297.78 54.7229 299.682 54.0771C300.878 53.6715 303.411 50.2972 305.13 47.8407L308.664 49.7031Z" fill="black"/>
<path d="M324.235 97.48L323.84 97.9663C323.84 97.9663 326.698 112.026 325.907 115.219C325.773 115.795 325.696 116.382 325.678 116.972V116.997C325.539 120.246 326.54 124.462 326.54 124.462C326.54 124.462 327.339 136.889 326.884 142H273.379C273.066 134.442 272.728 124.651 273.035 123.565C273.552 121.774 274.585 115.275 274.585 115.275L274.699 112.195C274.699 112.195 274.699 109.218 274.792 105.902C274.832 104.411 274.89 102.846 274.974 101.458C275.083 99.7122 275.235 98.2415 275.443 97.5189C275.571 96.9711 275.645 96.4124 275.664 95.8507C275.664 95.7983 275.664 95.7443 275.674 95.6903C275.674 95.5214 275.691 95.3391 275.698 95.1516C275.698 95.0993 275.698 95.0469 275.698 94.9828C275.731 93.8954 275.719 92.6054 275.682 91.2681C275.682 91.1955 275.682 91.1213 275.682 91.047C275.653 90.044 275.61 89.0208 275.562 88.0482C275.412 85.009 275.217 82.4391 275.217 82.4391L268.646 61.0968L270.417 56.8216L275.331 53.8702L284.417 48.4924C288.849 44.9213 291.767 45.3502 292.88 45.7419C292.988 45.778 293.094 45.8203 293.197 45.8685C293.231 45.8854 293.259 45.8989 293.285 45.9141C293.32 45.9305 293.354 45.9497 293.386 45.9715C293.082 46.1152 292.817 46.329 292.615 46.5946C292.387 46.8968 292.224 47.2416 292.138 47.6076C292.079 47.8345 292.039 48.0654 292.015 48.2982C291.993 48.5431 291.984 48.7963 291.984 49.0513C291.997 49.6104 292.045 50.1682 292.131 50.7212C292.131 50.7313 292.131 50.7448 292.131 50.7583C292.188 51.1534 292.258 51.5401 292.327 51.9031C292.326 51.9093 292.326 51.9155 292.327 51.9217C292.406 52.3455 292.486 52.7372 292.539 53.0749C292.549 53.1357 292.558 53.1914 292.566 53.2438C292.604 53.4669 292.622 53.6929 292.62 53.9191C292.639 54.4654 292.714 55.0084 292.844 55.5401C292.889 55.763 292.94 56.001 292.997 56.2492C293.075 56.5869 293.159 56.955 293.25 57.3299C293.3 57.5359 293.354 57.7486 293.409 57.9597C293.429 58.0441 293.452 58.1285 293.473 58.2146L293.507 58.348C293.874 59.7781 294.272 61.2015 294.516 62.0626C294.661 62.5692 294.752 62.8816 294.752 62.8816C294.752 62.8816 297.346 58.7701 299.417 56.4299C299.448 56.3961 299.475 56.3641 299.505 56.3337C299.71 56.1023 299.911 55.8913 300.104 55.7056C300.526 55.2936 300.905 54.9998 301.21 54.8917C301.275 54.8683 301.338 54.8395 301.398 54.8056C302.245 54.3345 303.613 52.6241 304.893 50.8326C305.019 50.6638 305.141 50.4797 305.265 50.3058C305.549 49.904 305.825 49.5004 306.085 49.1138C306.285 48.8183 306.476 48.5312 306.657 48.2577C307.518 46.9441 308.124 45.9648 308.124 45.9648L309.32 45.9124L309.528 45.9023H309.668L315.095 45.6558C315.095 45.6558 315.329 45.6946 315.715 45.7706C315.736 45.7706 315.757 45.7706 315.779 45.7841C317.705 46.1589 323.055 47.3459 323.382 48.9922C323.782 51.0082 332.412 53.698 332.412 53.698C332.525 55.0487 334.639 55.9386 334.639 55.9386C334.639 55.9386 337.839 64.229 336.983 67.4776C336.137 70.6857 339.185 78.6215 339.265 78.8444L338.682 79.567L324.235 97.48Z" fill="#E8F5FF"/>
<path opacity="0.1" d="M307.691 37.6046C307.691 37.6046 312.984 36.1354 314.187 39.1599C315.389 42.1845 318.08 54.3993 318.08 54.3993C318.08 54.3993 311.094 55.6879 309.263 54.3993C308.189 53.6346 306.86 53.2945 305.541 53.4469L301.591 56.0797L300.425 55.7419C300.425 55.7419 306.744 46.5483 308.118 43.4241C309.491 40.2998 309.955 38.9032 307.691 37.6046Z" fill="black"/>
<path d="M307.684 37.6046C307.684 37.6046 312.979 36.1354 314.187 39.1599C315.395 42.1845 318.08 54.3993 318.08 54.3993C318.08 54.3993 311.097 55.6879 309.264 54.3993C308.191 53.6346 306.863 53.2944 305.544 53.4469L301.591 56.0797L300.425 55.7419C300.425 55.7419 306.743 46.5483 308.117 43.4241C309.49 40.2998 309.948 38.9066 307.684 37.6046Z" fill="#E8F5FF"/>
<path opacity="0.1" d="M272.237 86.6814C272.237 86.6814 276.065 87.7235 276.788 90.1144C277.511 92.5054 273.958 92.5664 273.958 92.5664C273.958 92.5664 271.794 88.3369 272.237 86.6814Z" fill="black"/>
<path opacity="0.1" d="M286.301 101.982C286.301 101.982 277.515 121.228 279.543 123.063C281.571 124.899 286.301 101.982 286.301 101.982Z" fill="black"/>
<path opacity="0.1" d="M300.425 87.8584C300.425 87.8584 307.126 107.105 305.785 110.077C304.445 113.05 308.664 110.077 308.664 110.077L300.425 87.8584Z" fill="black"/>
<path d="M310.007 105.513C310.007 105.513 285.062 106.872 292.339 115.641C299.616 124.41 314.549 116.013 314.549 116.013L310.007 105.513Z" fill="#FFC1C7"/>
<path opacity="0.1" d="M306.31 29.3189C306.312 31.2127 305.958 33.0884 305.267 34.838C305.035 34.8659 304.804 34.8834 304.581 34.8939C304.248 34.1276 304.426 33.2427 304.433 32.3996C304.44 31.5565 304.143 30.5651 303.37 30.3382C301.827 29.8827 300.762 32.9075 299.241 32.3612C298.077 31.9458 298.381 30.0921 297.711 29.0222C297.18 28.1756 296.116 27.9365 295.289 27.4059C293.531 26.2731 293.584 24.4613 292.767 22.7472C291.912 20.9512 290.105 21.4818 288.535 22.5413C287.344 23.3477 286.316 24.4281 285.041 25.0704C283.938 25.629 282.698 25.8315 281.475 25.8611C280.722 25.8917 279.969 25.8083 279.239 25.6133C280.098 22.226 282.102 19.2821 284.877 17.3305C287.653 15.3789 291.01 14.5529 294.324 15.0065C297.637 15.46 300.68 17.1622 302.885 19.7956C305.09 22.429 306.307 25.8139 306.308 29.3189H306.31Z" fill="black"/>
<path d="M288.095 23.0679C286.878 23.8394 285.831 24.8716 284.532 25.4895C283.407 26.0223 282.143 26.216 280.896 26.2444C279.369 26.2778 277.725 26.0139 276.682 24.9283C275.723 23.9263 275.494 22.3848 275.899 21.0704C276.305 19.756 277.277 18.6655 278.419 17.8755C279.561 17.0856 280.886 16.5394 281.642 15.4088C282.043 14.8109 282.236 14.1061 282.569 13.4698C283.633 11.434 286.025 10.3317 288.337 10.1947C290.65 10.0578 292.942 10.7359 295.144 11.4707C297.347 12.2055 299.566 13.0139 301.89 13.1658C302.925 13.2293 304.001 13.1658 304.961 13.5516C306.252 14.0677 307.099 15.3019 307.676 16.5578C308.322 17.9741 308.724 19.5206 308.656 21.0671C308.514 24.3689 306.298 27.6088 307.272 30.772C307.53 31.6154 308.013 32.4805 307.755 33.3239C307.379 34.5548 305.765 34.8354 304.461 34.8938C304.121 34.1606 304.303 33.3122 304.31 32.5072C304.316 31.7023 304.014 30.752 303.227 30.5349C301.653 30.1023 300.567 32.9916 299.019 32.4705C297.84 32.0714 298.146 30.2994 297.46 29.2756C296.919 28.4639 295.833 28.2368 294.992 27.7291C293.198 26.6452 293.253 24.9116 292.42 23.2716C291.541 21.5447 289.696 22.0524 288.095 23.0679Z" fill="#99607E"/>
<path d="M264.182 87.933L262.954 88.3749C262.954 88.3749 263.437 95.8701 261.827 98.0197C260.218 100.169 267.112 105.513 267.112 105.513C267.112 105.513 276.56 105.458 276.827 104.683C277.094 103.907 276.345 90.7952 276.345 90.7952C276.345 90.7952 271.273 88.7553 271.699 85.5044C271.699 85.5044 270.151 93.1641 267.857 92.8335C265.562 92.5029 262.957 90.5245 264.182 87.933Z" fill="#E8F5FF"/>
<path opacity="0.1" d="M267.469 94.9203C269.419 94.9203 271 93.3395 271 91.3894C271 89.4393 269.419 87.8584 267.469 87.8584C265.519 87.8584 263.938 89.4393 263.938 91.3894C263.938 93.3395 265.519 94.9203 267.469 94.9203Z" fill="black"/>
<path d="M271 88.394C271 88.394 270.334 65.925 264.537 70.9312C258.739 75.9374 258.683 81.9246 259.787 83.6933C260.89 85.462 264.43 94.3168 264.43 94.3168C264.984 94.6715 265.606 94.8762 266.245 94.914C266.884 94.9519 267.522 94.8218 268.107 94.5345C268.691 94.2472 269.206 93.8108 269.609 93.2611C270.012 92.7114 270.291 92.064 270.424 91.372L271 88.394Z" fill="#FFC1C7"/>
<path opacity="0.1" d="M308.249 35.4387C308.222 35.347 308.17 35.2652 308.098 35.2028C307.809 34.9345 307.187 34.8404 306.249 34.9225L306.288 35.3738C307.538 35.2644 307.785 35.5173 307.817 35.5601V35.6028L307.856 35.6592C308.012 35.8723 308.122 36.1162 308.18 36.3752C308.238 36.6342 308.242 36.9027 308.192 37.1634C307.918 38.5565 306.236 39.6659 306.219 39.6778L306.178 39.7018L306.153 39.7411C305.427 40.8367 301.321 43.9289 300.247 44.7289L300.152 44.6195C299.672 45.0434 295.446 48.8056 295.217 50.2465C295.069 51.1508 294.068 51.5012 293.704 51.5986C293.321 51.3029 292.077 50.2961 291.43 49.168C290.823 48.1065 293.266 46.0348 293.481 45.2263L293.145 44.8759C293.109 45.0058 289.973 47.9868 290.845 49.5098C291.544 50.732 292.822 51.7781 293.269 52.1234C293.126 53.443 292.237 61.1913 290.87 63.0271C289.173 65.309 287.746 76.8093 287.904 80.8245C288.043 84.3919 287.127 91.13 284.068 94.0239C283.538 94.5468 282.899 94.9414 282.199 95.1782C281.498 95.415 280.754 95.4878 280.022 95.3913H279.985H279.948C279.904 95.3913 275.467 95.8528 271.738 92.6564C268.688 90.0463 266.96 85.7867 266.6 79.9921H266.526L266.496 78.305C267.323 78.1737 268.068 77.7215 268.574 77.0434C269.08 76.3652 269.308 75.514 269.21 74.6685C269.112 73.823 268.696 73.0491 268.048 72.5093C267.401 71.9695 266.573 71.706 265.738 71.774C264.904 71.842 264.128 72.2363 263.573 72.874C263.018 73.5117 262.728 74.3433 262.764 75.1938C262.8 76.0444 263.158 76.8479 263.764 77.4354C264.37 78.0229 265.176 78.3486 266.013 78.3443H266.05L266.081 80.0211L265.933 80.0314C266.302 86.014 268.118 90.4394 271.311 93.1726C273.739 95.2181 276.84 96.25 279.987 96.0597C280.21 96.0845 280.434 96.097 280.659 96.0973C282.101 96.1048 283.489 95.5372 284.525 94.5162C287.747 91.465 288.727 84.479 288.574 80.7903C288.406 76.5358 289.904 65.4492 291.407 63.4305C292.879 61.4494 293.772 53.7301 293.928 52.2345C294.461 52.0823 295.666 51.602 295.871 50.3542C296.019 49.4517 298.841 46.6706 300.578 45.1305L300.526 45.069C301.46 44.375 304.366 42.1871 305.807 40.782C306.254 40.3462 306.698 39.9103 307.162 39.4949C307.72 38.9924 308.429 38.1941 308.616 37.2506C308.679 36.9391 308.68 36.6177 308.617 36.3061C308.554 35.9946 308.429 35.6994 308.249 35.4387Z" fill="black"/>
<path d="M293.066 50.1947C293.013 50.163 291.754 49.3841 291.124 48.4469C290.469 47.4737 292.827 45.5697 292.852 45.4867L293.105 45.7106C292.945 46.2262 291.108 47.5512 291.565 48.2285C292.14 49.0838 293.35 49.832 293.363 49.8397L293.066 50.1947Z" fill="#353146"/>
<path d="M300.674 45.4867L300.425 45.1122C300.476 45.0721 305.483 41.1142 306.273 39.8338L306.298 39.7955L306.335 39.7694C306.351 39.7572 307.947 38.6283 308.206 37.2068C308.254 36.9414 308.251 36.668 308.196 36.4042C308.141 36.1405 308.036 35.8922 307.888 35.6756L307.851 35.6164V35.5746C307.819 35.5293 307.585 35.2732 306.399 35.3847L306.362 34.923C307.253 34.8394 307.841 34.9352 308.116 35.2087C308.184 35.2729 308.234 35.3569 308.261 35.4509C308.433 35.7157 308.554 36.0164 308.616 36.3343C308.678 36.6522 308.68 36.9805 308.621 37.2992C308.444 38.2625 307.773 39.076 307.242 39.5865C306.804 40.0098 306.381 40.4575 305.959 40.8982C304.356 42.5758 300.849 45.3491 300.674 45.4867Z" fill="#E8F5FF"/>
<path d="M266.024 77.5028L265.573 77.5111L265.623 80.253L266.074 80.2447L266.024 77.5028Z" fill="#E8F5FF"/>
<path d="M265.703 77.2656C267.329 77.2656 268.646 76.2117 268.646 74.9116C268.646 73.6115 267.329 72.5576 265.703 72.5576C264.078 72.5576 262.761 73.6115 262.761 74.9116C262.761 76.2117 264.078 77.2656 265.703 77.2656Z" fill="#6C63FF"/>
<path d="M265.115 77.2656C266.415 77.2656 267.469 76.2117 267.469 74.9116C267.469 73.6115 266.415 72.5576 265.115 72.5576C263.815 72.5576 262.761 73.6115 262.761 74.9116C262.761 76.2117 263.815 77.2656 265.115 77.2656Z" fill="#E8F5FF"/>
<path d="M280.798 96.0972C280.577 96.0975 280.356 96.0858 280.136 96.0619C277.036 96.2472 273.983 95.233 271.591 93.2238C268.445 90.5352 266.66 86.1899 266.292 80.3036L266.954 80.2616C267.309 85.958 269.011 90.1471 272.018 92.7113C275.69 95.8451 280.06 95.3999 280.103 95.3999H280.139H280.176C280.897 95.4942 281.63 95.4224 282.321 95.1897C283.011 94.9569 283.641 94.5693 284.163 94.0556C287.175 91.2107 288.077 84.5868 287.94 81.0799C287.774 77.1294 289.18 65.824 290.854 63.5824C292.32 61.6181 293.229 52.7643 293.239 52.6752L293.263 52.4232L293.508 52.3795C293.523 52.3795 294.954 52.1039 295.133 51.0184C295.365 49.6036 299.521 45.9051 299.993 45.4867L300.425 45.9908C298.708 47.5031 295.928 50.2387 295.788 51.1276C295.586 52.3577 294.399 52.8282 293.876 52.976C293.71 54.448 292.838 62.0348 291.392 63.9823C289.912 65.9668 288.437 76.8656 288.602 81.048C288.745 84.6742 287.789 91.5435 284.615 94.5412C283.593 95.5474 282.222 96.1062 280.798 96.0972Z" fill="#353146"/>
<g opacity="0.1">
<path opacity="0.1" d="M308.073 26.0793C308.352 25.0477 308.689 24.0093 308.924 22.9641C308.643 24.0144 308.305 25.0477 308.073 26.0793Z" fill="black"/>
<path opacity="0.1" d="M305.225 34.1853C304.885 33.438 305.067 32.5733 305.074 31.7528C305.08 30.9323 304.777 29.9722 303.988 29.7424C302.408 29.3015 301.318 32.2482 299.766 31.7153C298.574 31.3085 298.889 29.5024 298.202 28.4589C297.659 27.6316 296.571 27.4001 295.727 26.8826C293.926 25.7778 293.98 24.0109 293.146 22.3393C292.269 20.5859 290.422 21.1034 288.815 22.1384C287.595 22.9248 286.544 23.9785 285.241 24.6067C284.112 25.1497 282.844 25.3472 281.593 25.3761C280.069 25.4118 278.411 25.1412 277.364 24.0347C276.557 23.1836 276.266 21.9358 276.433 20.7664C276.404 20.8464 276.379 20.9264 276.353 21.0064C275.944 22.3461 276.183 23.9207 277.138 24.9386C278.185 26.0451 279.843 26.314 281.366 26.28C282.619 26.2511 283.886 26.0536 285.016 25.5106C286.323 24.8807 287.373 23.8287 288.591 23.0423C290.198 22.0073 292.046 21.4898 292.921 23.2432C293.755 24.9148 293.703 26.6817 295.502 27.7865C296.353 28.2972 297.434 28.5355 297.979 29.3628C298.66 30.4097 298.358 32.2124 299.543 32.6192C301.094 33.1504 302.183 30.2054 303.763 30.6463C304.553 30.8676 304.857 31.8379 304.849 32.6567C304.84 33.4755 304.663 34.3419 305 35.0892C306.31 35.0297 307.928 34.7488 308.308 33.4891C308.36 33.3083 308.384 33.1206 308.379 32.9325C307.826 33.8874 306.403 34.1326 305.225 34.1853Z" fill="black"/>
</g>
<path opacity="0.1" d="M335.832 76.3313L337.746 78.4107C337.746 78.4107 339.276 89.869 340.041 90.9409C340.806 92.0127 342.612 96.2764 340.916 99.4784C340.916 99.4784 340.369 101.221 340.697 101.951C341.025 102.68 338.238 106.333 338.238 106.333C338.238 106.333 334.575 109.702 333.809 110.209C333.043 110.715 328.999 114.758 327.633 114.814C326.266 114.87 325.82 116.613 325.82 116.613L318.111 116.894C318.111 116.894 313.853 116.665 312.927 117.283C312.927 117.283 313.421 110.598 308.664 106.216L314.731 103.969C314.731 103.969 317.028 102.953 317.739 101.891C318.185 101.24 318.819 100.75 319.551 100.488C319.551 100.488 321.245 99.2515 321.3 98.5776C321.354 97.9036 323.371 97.0773 323.371 97.0773L322.229 87.0616L322.831 70.4336C322.831 70.4336 324.744 56.5014 328.789 57.2888C332.835 58.0761 335.832 76.3313 335.832 76.3313Z" fill="black"/>
<path d="M335.832 76.3313L337.746 78.4107C337.746 78.4107 339.276 89.869 340.041 90.9409C340.806 92.0127 342.612 96.2764 340.916 99.4784C340.916 99.4784 340.371 101.221 340.699 101.951C341.027 102.68 338.238 106.333 338.238 106.333C338.238 106.333 334.575 109.702 333.809 110.209C333.043 110.715 328.999 114.758 327.633 114.814C326.266 114.87 325.82 116.613 325.82 116.613L318.111 116.894C318.111 116.894 313.85 116.665 312.927 117.283C312.927 117.283 313.421 110.598 308.664 106.216L314.731 103.969C314.731 103.969 317.028 102.953 317.739 101.891C318.185 101.24 318.819 100.75 319.551 100.488C319.551 100.488 321.245 99.2515 321.3 98.5776C321.354 97.9036 323.371 97.0773 323.371 97.0773L322.229 87.0616L322.831 70.4336C322.831 70.4336 324.744 56.5014 328.789 57.2888C332.835 58.0761 335.832 76.3313 335.832 76.3313Z" fill="#E8F5FF"/>
<path opacity="0.1" d="M329.85 94.1562C329.85 94.1562 336.224 93.0847 337.895 94.3943C339.567 95.7038 329.85 94.1562 329.85 94.1562Z" fill="black"/>
<path opacity="0.1" d="M331.027 103.159C331.223 103.199 335.859 106.266 337.805 105.339C339.752 104.411 331.027 103.159 331.027 103.159Z" fill="black"/>
<path opacity="0.1" d="M276.885 66.6726C276.885 66.6726 278.184 74.7927 277.544 78.0999C276.904 81.407 279.239 85.5045 279.239 85.5045L276.885 66.6726Z" fill="black"/>
<path d="M251.706 70.5139C250.356 71.5393 249.37 73.9663 248.656 76.6336C247.41 81.2863 247.003 86.6815 247.003 86.6815C247.003 86.6815 236.251 84.2938 237.034 83.2095C237.527 82.5276 236.865 77.3891 236.313 73.6637C235.984 71.4625 235.69 69.7535 235.69 69.7535C235.69 69.7535 255.403 67.6912 251.706 70.5139Z" fill="#FFCCD0"/>
<path opacity="0.1" d="M251.706 70.5341C250.356 71.5756 249.37 74.0349 248.656 76.7397C246.514 77.3788 244.235 77.4365 242.062 76.9065C239.889 76.3766 237.903 75.2789 236.313 73.7298C235.984 71.496 235.69 69.763 235.69 69.763C235.69 69.763 255.403 67.6734 251.706 70.5341Z" fill="black"/>
<path d="M255.699 63.1367C255.7 66.193 254.669 69.1511 252.789 71.4876C250.908 73.8241 248.299 75.3883 245.423 75.9033C242.548 76.4184 239.591 75.851 237.076 74.3017C234.561 72.7524 232.651 70.3211 231.683 67.438C230.714 64.5549 230.751 61.4059 231.786 58.5484C232.821 55.6909 234.788 53.3092 237.338 51.8246C239.888 50.3401 242.857 49.8485 245.72 50.4369C248.583 51.0253 251.155 52.6557 252.98 55.0396C254.739 57.336 255.699 60.1922 255.699 63.1367Z" fill="#FFCCD0"/>
<path opacity="0.1" d="M265.109 142H263.106L262.937 135.817L262.761 129.417C262.761 129.417 263.216 129.298 263.941 129.121L264.233 129.053H264.257C264.415 130.352 264.572 131.685 264.723 133.018C264.973 135.382 265.104 137.781 265.113 140.186C265.113 140.353 265.113 140.52 265.113 140.676C265.118 141.121 265.113 141.567 265.109 142Z" fill="black"/>
<path d="M266.284 142H220.389C220.588 141.559 220.721 141.291 220.721 141.291C220.721 141.291 224.392 125.588 226.259 118.943C226.259 118.938 226.259 118.932 226.259 118.926C226.492 118.024 226.773 117.134 227.102 116.26C227.123 116.201 227.151 116.144 227.184 116.09C228.108 114.621 229.265 113.039 227.646 110.778C226.027 108.518 226.6 98.5702 226.6 98.5702C226.6 98.5702 228.566 90.0914 230.647 85.5701C230.962 84.8698 231.411 84.234 231.968 83.6961C232.149 83.5229 232.342 83.3624 232.546 83.2157C232.701 83.1017 232.863 82.9965 233.031 82.9006L233.064 82.8801C233.938 82.3957 234.908 82.1011 235.909 82.0164C236.62 81.9437 237.338 81.9632 238.044 82.0743C241.418 82.5581 244.119 83.3673 246.266 84.289C252.085 86.7882 253.846 90.1374 253.881 90.2073L253.895 90.2362C254.129 90.7695 257.544 98.5651 258.775 102.202C259.093 103.149 259.268 103.816 259.198 103.998C258.85 104.901 261.857 116.204 261.857 116.204C261.857 116.204 263.251 121.656 264.646 128.046C264.707 128.312 264.764 128.577 264.82 128.846C265.069 130.007 265.316 131.189 265.555 132.37C266.018 134.803 266.256 137.271 266.268 139.746C266.294 140.517 266.299 141.269 266.284 142Z" fill="#FF748E"/>
<path opacity="0.1" d="M236.39 77.6234C236.39 77.6234 233.299 76.5162 233.337 78.196C233.374 79.8757 234.09 80.6792 233.864 80.9244C233.638 81.1695 233.976 82.6389 233.976 82.6389C233.976 82.6389 238.153 82.6389 240.072 83.4424C241.991 84.2459 249.065 85.8561 249.968 86.3464C250.871 86.8367 254.221 89.0353 254.221 89.0353L254.522 84.8723C254.522 84.8723 251.06 82.2135 245.38 80.85C239.699 79.4866 236.39 77.6234 236.39 77.6234Z" fill="black"/>
<path d="M236.39 77.6234C236.39 77.6234 233.299 76.5162 233.337 78.196C233.374 79.8757 234.09 80.6792 233.864 80.9244C233.638 81.1695 233.976 82.6389 233.976 82.6389C233.976 82.6389 238.152 82.6389 240.071 83.444C241.989 84.2491 249.062 85.8577 249.965 86.3464C250.868 86.8352 254.218 89.0353 254.218 89.0353L254.522 84.8849C254.522 84.8849 251.061 82.2261 245.381 80.8627C239.702 79.4993 236.39 77.6234 236.39 77.6234Z" fill="#FF748E"/>
<path opacity="0.1" d="M245.106 87.8584C245.106 87.8584 252.533 94.1477 252.154 95.8894C251.776 97.6311 245.106 87.8584 245.106 87.8584Z" fill="black"/>
<path opacity="0.1" d="M235.503 111.398C235.503 111.398 231.379 115.294 230.164 115.515C228.949 115.736 231.096 116.47 232.493 115.884C233.889 115.298 236.867 113.754 236.867 113.754L235.503 111.398Z" fill="black"/>
<path d="M267.469 142H256.617C255.099 140.835 253.664 139.756 252.75 139.107C251.287 138.068 250.232 136.539 249.559 135.31C249.407 135.03 249.275 134.768 249.164 134.53C248.964 134.12 248.788 133.702 248.637 133.276L256.674 129.053C257.118 129.387 257.535 129.748 257.922 130.134L258.019 130.233C258.465 130.699 258.859 131.228 258.893 131.661C258.934 132.166 260.521 134.119 262.143 135.994C263.788 137.902 265.474 139.725 265.586 139.848C265.586 139.848 265.864 140.183 266.317 140.698C266.637 141.07 267.032 141.516 267.469 142Z" fill="#FFCCD0"/>
<path opacity="0.1" d="M253.345 55.2327C252.985 56.1036 252.663 57.0074 252.615 57.9771C252.48 60.7764 252.699 67.0355 249.81 68.4407C248.379 69.1323 246.847 67.6137 245.278 67.5771C244.149 67.5515 243.114 68.3199 242.425 69.2805C241.736 70.241 241.308 71.3809 240.808 72.4677C240.353 73.4541 239.829 74.4022 239.241 75.3036C239.065 75.5795 238.871 75.8418 238.661 76.0885C236.899 75.291 235.331 74.0727 234.074 72.5263C232.818 70.9799 231.907 69.1463 231.412 67.1652C230.916 65.1841 230.849 63.1077 231.214 61.0943C231.58 59.0809 232.369 57.1836 233.522 55.547C234.674 53.9105 236.16 52.5777 237.866 51.6504C239.571 50.7231 241.452 50.2257 243.364 50.1961C245.275 50.1665 247.168 50.6054 248.898 51.4795C250.628 52.3536 252.149 53.6398 253.345 55.24V55.2327Z" fill="black"/>
<path d="M252.73 58.6297C252.594 61.2311 252.814 67.0477 249.931 68.3518C248.504 68.9946 246.977 67.585 245.412 67.551C244.286 67.5255 243.255 68.2413 242.566 69.1323C241.878 70.0232 241.454 71.0842 240.954 72.0958C240.5 73.0125 239.978 73.8935 239.391 74.7313C239.041 75.2278 238.653 75.7259 238.114 76.0048C237.175 76.4945 236.037 76.219 235.03 75.9045C233.724 75.493 232.437 75.0294 231.169 74.5136C231.198 74.3223 231.213 74.1291 231.213 73.9355C231.176 74.007 231.135 74.0733 231.094 74.1447L231.014 74.2841C230.87 74.5391 230.729 74.7942 230.599 75.056C230.55 75.1563 230.502 75.2601 230.46 75.3638C230.289 75.7498 230.181 76.1609 230.142 76.5812C230.055 77.7152 230.615 78.7915 231.111 79.8117C233.021 83.758 234.202 88.3726 232.765 92.5127C232.142 94.3133 231.064 95.9133 230.276 97.6526C228.9 100.733 228.494 104.16 229.115 107.477C229.507 109.538 230.295 111.578 230.101 113.668C229.761 117.264 226.659 119.94 223.551 121.779C221.872 122.769 219.818 123.65 218.035 122.868C219.172 121.541 219.464 119.707 219.709 117.976C220.379 113.255 221.051 108.532 221.724 103.806C221.993 101.925 222.261 100.045 222.529 98.1644C223.029 94.6313 223.536 91.059 223.223 87.5037C222.995 84.8836 222.352 82.102 223.488 79.7301C224.089 78.4736 225.158 77.433 225.492 76.0796C225.766 74.9795 225.511 73.8097 225.691 72.6892C225.789 72.1795 225.957 71.6853 226.187 71.2202C226.481 70.5891 226.865 70.0038 227.327 69.4825C226.871 69.3499 226.446 69.168 226.187 68.7871C226.919 68.311 227.029 67.2382 226.698 66.4322C226.366 65.6263 225.703 65.0125 225.106 64.3766C224.509 63.7407 223.934 62.9994 223.859 62.1323C223.714 60.4813 225.364 59.2027 225.655 57.5738C225.949 55.9161 224.786 54.3042 224.88 52.626C224.988 50.5976 226.852 49.1235 228.693 48.2682C231.47 46.9831 234.538 46.4551 237.585 46.738C240.064 46.9726 242.464 47.7394 244.937 48.037C246.429 48.207 247.941 48.224 249.422 48.4859C250.904 48.7477 252.389 49.3003 253.431 50.3868C256.18 53.2517 252.887 55.61 252.73 58.6297Z" fill="#FFE0D0"/>
<path opacity="0.1" d="M249.95 134.92C249.093 134.551 247.534 134.771 244.858 133.963C242.182 133.156 241.666 129.504 241.666 129.504V129.493C241.634 129.409 241.386 128.866 239.702 126.964C237.843 124.864 233.822 114.255 233.822 114.255C233.822 114.255 230.257 110.459 230.37 109.059C230.482 107.66 229.737 103.937 229.81 99.7731C229.884 95.6088 237.836 92.8471 237.836 92.8471C253.146 90.157 249.54 107.657 249.132 108.983C248.724 110.309 250.842 113.89 250.842 113.89C250.543 115.449 252.069 117.863 252.069 117.863C252.069 117.863 252.438 119.998 252.514 120.809C252.518 120.847 252.527 120.884 252.539 120.919C252.784 121.684 254.784 122.377 255.597 122.798C256.452 123.241 259.202 127.109 259.202 127.109C259.795 129.949 250.804 135.293 249.95 134.92Z" fill="black"/>
<path d="M251.562 133.743C250.639 133.383 248.953 133.599 246.064 132.811C243.175 132.024 242.616 128.477 242.616 128.477V128.466C242.584 128.383 242.313 127.857 240.495 126.007C238.486 123.964 234.144 113.647 234.144 113.647C234.144 113.647 230.294 109.957 230.413 108.596C230.533 107.236 229.731 103.616 229.811 99.5694C229.891 95.5233 238.474 92.8393 238.474 92.8393C255.01 90.2235 251.116 107.24 250.675 108.53C250.234 109.819 252.522 113.302 252.522 113.302C252.199 114.818 253.847 117.165 253.847 117.165C253.847 117.165 254.246 119.241 254.33 120.03C254.333 120.066 254.341 120.102 254.355 120.137C254.62 120.88 256.779 121.554 257.659 121.964C258.581 122.393 261.553 126.156 261.553 126.156C262.198 128.913 252.486 134.109 251.562 133.743Z" fill="#FF748E"/>
<path opacity="0.1" d="M239.221 99.6283C239.221 99.6283 245.603 107.867 247.268 107.867C248.934 107.867 239.221 99.6283 239.221 99.6283Z" fill="black"/>
<path d="M251.003 133.744C250.03 133.402 248.253 133.607 245.209 132.859C242.164 132.111 241.575 128.742 241.575 128.742V128.731C243.593 127.654 248.703 124.613 250.716 123.5C252.133 122.72 253.29 121.574 253.967 120.814C254.247 121.52 256.522 122.16 257.45 122.55C258.421 122.957 261.554 126.531 261.554 126.531C262.212 129.156 251.977 134.091 251.003 133.744Z" fill="#FF748E"/>
<g opacity="0.1">
<path opacity="0.1" d="M226.194 67.9074C226.202 67.921 226.214 67.9329 226.225 67.9465C226.276 67.8818 226.328 67.8171 226.383 67.7559C226.325 67.8123 226.262 67.863 226.194 67.9074Z" fill="black"/>
<path opacity="0.1" d="M230.143 75.7108C230.215 74.7661 230.72 73.9337 231.194 73.103C230.884 72.9838 230.574 72.863 230.267 72.737C230.297 72.546 230.311 72.3531 230.312 72.1599C229.833 73.011 229.313 73.8486 229.239 74.8069C229.153 75.9441 229.713 77.0199 230.21 78.0413C232.123 81.9905 233.303 86.6105 231.864 90.7572C231.239 92.5582 230.162 94.1617 229.374 95.9031C227.997 98.987 227.592 102.417 228.213 105.737C228.603 107.802 229.393 109.843 229.198 111.935C228.858 115.535 225.755 118.215 222.643 120.055C221.371 120.807 219.885 121.497 218.464 121.447C218.332 121.659 218.186 121.861 218.025 122.052C219.81 122.84 221.865 121.953 223.545 120.959C226.659 119.12 229.769 116.448 230.109 112.841C230.303 110.749 229.513 108.708 229.122 106.643C228.5 103.323 228.904 99.8932 230.279 96.8088C231.062 95.069 232.152 93.4638 232.77 91.6628C234.208 87.5161 233.027 82.8961 231.115 78.9469C230.62 77.9187 230.056 76.848 230.143 75.7108Z" fill="black"/>
<path opacity="0.1" d="M253.447 49.4871C253.28 49.3154 253.1 49.156 252.909 49.0105C254.972 51.6865 251.994 53.9607 251.845 56.8409C251.713 59.4454 251.931 65.2706 249.045 66.5745C247.619 67.2197 246.088 65.8068 244.524 65.7727C243.395 65.7489 242.364 66.4655 241.674 67.3575C240.985 68.2495 240.561 69.3117 240.062 70.3229C239.607 71.2405 239.084 72.1225 238.496 72.9614C238.156 73.4602 237.757 73.9572 237.216 74.2381C236.28 74.7267 235.141 74.4526 234.132 74.136C233.15 73.8273 232.177 73.4868 231.214 73.1146C231.212 73.2919 231.197 73.4688 231.17 73.644C232.44 74.1615 233.728 74.6257 235.036 75.0365C236.043 75.3531 237.182 75.6272 238.12 75.1386C238.66 74.8577 239.051 74.359 239.4 73.8602C239.988 73.0225 240.511 72.141 240.965 71.2234C241.465 70.2122 241.887 69.1483 242.578 68.2563C243.269 67.3643 244.299 66.6494 245.426 66.6732C246.992 66.7073 248.523 68.1202 249.949 67.475C252.834 66.1711 252.615 60.3459 252.749 57.7414C252.906 54.7131 256.202 52.3538 253.447 49.4871Z" fill="black"/>
</g>
<path opacity="0.1" d="M230.982 74.6846C230.877 75.0162 230.773 75.3479 230.679 75.6884C230.643 75.8188 230.608 75.9537 230.577 76.0886C229.925 74.9211 228.337 72.1463 227.451 71.2863C227.667 70.4658 227.947 69.7048 228.285 69.0266C228.285 69.0266 230.396 71.0099 230.982 74.6846Z" fill="black"/>
<path d="M230.982 72.9648C230.501 70.4097 228.271 69.0266 228.271 69.0266C227.939 69.4669 227.663 69.9613 227.451 70.4944C228.37 71.0847 230.064 73.0639 230.626 73.7346L230.982 72.9648Z" fill="#FF748E"/>
</g>
<defs>
<linearGradient id="paint0_linear_23_188" x1="-77" y1="-20.9322" x2="473.081" y2="139.657" gradientUnits="userSpaceOnUse">
<stop stop-color="#4474F6"/>
<stop offset="1" stop-color="#7366FF"/>
</linearGradient>
<linearGradient id="paint1_linear_23_188" x1="78269.5" y1="111907" x2="78269.5" y2="7810.78" gradientUnits="userSpaceOnUse">
<stop stop-color="#808080" stop-opacity="0.25"/>
<stop offset="0.54" stop-color="#808080" stop-opacity="0.12"/>
<stop offset="1" stop-color="#808080" stop-opacity="0.1"/>
</linearGradient>
</defs>
</svg>
