<svg width="79" height="79" viewBox="0 0 79 79" fill="none" xmlns="http://www.w3.org/2000/svg">
<path d="M39.4614 59.25L50.1079 49.4937L37.3398 37.7078L41.4287 33.9334L54.1968 45.7194L61.0244 39.4169L48.2564 27.631L52.3452 23.8567L65.1133 35.6426L72.8281 28.5212C74.0541 27.4251 74.8516 25.9846 75.0959 24.4254C75.3402 22.8661 75.0175 21.2761 74.1782 19.9043L70.3208 13.1746L79 5.0206L73.561 1.81773e-05L64.7275 8.01158L57.437 4.45089C56.2613 3.83574 54.9311 3.51649 53.5796 3.5251C52.5616 3.52436 51.5535 3.7096 50.6134 4.07016C49.6733 4.43072 48.8198 4.95947 48.1021 5.62592L14.8125 36.4971L39.4614 59.25Z" fill="white"/>
<path d="M9.12972 47.768L15.8 55.314L10.5085 61.225L5.25425 55.314L1.55394e-06 61.225L15.8 79L21.0542 73.089L15.8 67.136L21.0542 61.225L27.7618 68.7291L34.2458 76.0654L39.5 70.1125L35.6618 65.7945L35.6618 65.7526L11.7755 38.8805L11.7382 38.8805L7.90001 34.5625L2.6085 40.4735L9.09246 47.768L9.12972 47.768Z" fill="white"/>
</svg>
